<svg width="100mm" height="100mm" version="1.1" viewBox="0 0 100 100" xmlns="http://www.w3.org/2000/svg" xmlns:cc="http://creativecommons.org/ns#" xmlns:dc="http://purl.org/dc/elements/1.1/" xmlns:rdf="http://www.w3.org/1999/02/22-rdf-syntax-ns#">
 <title>Open Hub Service</title>
 <metadata>
  <rdf:RDF>
   <cc:Work rdf:about="">
    <dc:format>image/svg+xml</dc:format>
    <dc:type rdf:resource="http://purl.org/dc/dcmitype/StillImage"/>
    <dc:title>Open Hub Service</dc:title>
    <dc:creator>
     <cc:Agent>
      <dc:title>Thomas Fozzi</dc:title>
     </cc:Agent>
    </dc:creator>
    <dc:rights>
     <cc:Agent>
      <dc:title>Serco S.p.A.</dc:title>
     </cc:Agent>
    </dc:rights>
   </cc:Work>
  </rdf:RDF>
 </metadata>
 <path d="m49.34 4.998 0.0015 0.00258h-1e-3zm0.0015 0.00258c2.233 4.768e-4 4.108 1.531 4.65 3.604 2.074 0.1576 4.043 0.4646 5.861 0.9266 5.652 1.437 10.9 4.228 15.42 8.002 0.8602-0.8131 2.018-1.312 3.294-1.312 2.654 0 4.807 2.162 4.807 4.827 0 1.343-0.5479 2.558-1.432 3.434 4.416 5.737 7.504 12.62 8.687 19.99 2.457 0.2142 4.385 2.283 4.385 4.805 0 2.369-1.705 4.34-3.948 4.747-0.04667 0.9176-0.1204 1.917-0.2424 2.982-0.4501 3.94-1.521 8.79-4.056 13.38-1.006 1.824-2.5 3.699-4.332 5.403 0.4977 0.7599 0.7886 1.669 0.7886 2.646 0 2.665-2.153 4.827-4.808 4.827-1.727 0-3.241-0.9162-4.088-2.29-3.167 1.187-6.84 1.58-10.82 1.174-0.9957 1.399-2.077 2.701-3.244 3.855-1.868 1.849-3.966 3.323-6.242 4.178-0.0011 2.662-2.153 4.824-4.808 4.824-0.7769 0-1.51-0.1853-2.161-0.5142 1.745-1.216 3.532-2.511 6.575-6.221 0.04517 0.105 0.08673 0.2122 0.1245 0.3209 1.923-0.774 3.731-2.06 5.403-3.715 0.9007-0.8912 1.757-1.887 2.562-2.958-1.299-0.2057-2.626-0.4949-3.974-0.8651l0.5597-1.502c0.2979 0.08028 0.5949 0.1567 0.8894 0.2284 1.172 0.285 2.375 0.4443 3.63 0.5715 1.295-1.946 2.434-4.075 3.379-6.239 0.5141-1.176 0.9669-2.364 1.372-3.548-2.47 0.571-5.123 1.022-7.769 1.356l0.07441-1.662c2.86-0.3778 5.708-0.8867 8.28-1.517 2.839-9.483 2.57-18.46 2.567-20.73-8e-6 -5.29e-4 1e-5 -6.93e-4 0-0.0016-0.0327-1.546-0.0958-2.977-0.186-4.315-2.582-0.08298-4.652-2.21-4.652-4.821 0-1.168 0.414-2.24 1.102-3.075-2.528-2.557-5.176-4.842-7.785-6.731l-0.0186-0.01395c-0.4572-0.3517-0.9187-0.6962-1.384-1.034-3.667-0.4326-6.71-0.4953-8.573-0.4982-0.6073-0.0011-1.09 0.0032-1.428 0.0036-5.29e-4 1.1e-5 -2.28e-4 -5e-6 -1e-3 0-7.853 0.1653-12.81 1.08-17.47 2.557-0.925 2.881-1.771 6.284-2.31 10.14l-1.61 0.1261c0.4855-3.612 1.235-6.843 2.076-9.645l-4.673 1.764c-1.576 0.6231-4.371 2.021-7.043 4.08 0.08038 0.5271 0.1733 1.059 0.2842 1.6 0.2509 1.22 0.6886 2.715 1.292 4.374l-1.61 0.723c-0.6745-1.871-1.147-3.68-1.436-5.482-2.365 2.111-4.403 4.739-5.226 7.835 0.7179 0.04109 1.393 0.2404 1.993 0.5638-2.264 1.6-4.414 3.842-6.464 6.607-0.3879-0.6956-0.6093-1.497-0.6093-2.351 0-2.172 1.432-4.011 3.4-4.617 0.8115-3.765 3.202-6.861 5.864-9.237 0.2686-0.2397 0.5401-0.4696 0.8134-0.695-0.0064-0.07202-0.01177-0.1439-0.01757-0.216-0.2381-2.187-0.1983-4.318 0.1938-6.417 0.05631-0.4308 0.1182-0.8635 0.1907-1.303 0.3043-1.841 1.16-3.614 2.322-5.27 0.2062-0.3329 0.4258-0.6493 0.6573-0.9483-0.2982-0.6279-0.4656-1.331-0.4656-2.072 0-2.665 2.153-4.823 4.807-4.823 0.8872 0 1.717 0.2426 2.432 0.664 2.082-1.495 4.035-2.591 5.366-3.12 4.498-1.781 9.349-2.966 14.08-3.517 0.4556-2.189 2.39-3.834 4.705-3.834zm7.043 5.482c1.933 1.123 3.639 2.614 5.096 4.2 3.009 3.276 4.99 6.97 5.808 9.018 0.6959 1.752 1.336 3.408 1.91 5.078 1.731 0.5363 3.482 1.171 5.223 1.928 4.207 1.829 8.324 4.297 11.45 7.34 0.8631 0.8412 1.648 1.732 2.342 2.664-1.487-5.602-4.114-10.81-7.575-15.29-0.6263 0.3003-1.329 0.4687-2.069 0.4687-2.654 0-4.805-2.163-4.805-4.826 0-0.8076 0.1986-1.568 0.5483-2.236-4.363-3.657-9.417-6.361-14.84-7.74-0.9761-0.2481-2.007-0.4483-3.082-0.6025zm-11.75 0.3974c-2.046 0.7533-3.85 1.983-5.45 3.503-0.8375 0.7959-1.615 1.672-2.335 2.599 7.398 1.296 14.85 4.705 21.54 9.51 2.725 0.3382 5.771 0.8807 8.936 1.744-0.4654-1.284-0.9722-2.581-1.516-3.951-0.725-1.824-2.659-5.437-5.501-8.528-1.786-1.945-3.916-3.678-6.327-4.708-0.534 2.08-2.416 3.617-4.654 3.617-2.301 0-4.222-1.623-4.694-3.787zm-3.802 0.1726c-3.301 0.6279-6.597 1.561-9.702 2.791-1.057 0.4186-2.8 1.384-4.694 2.707 0.1175 0.1405 0.2271 0.2878 0.3281 0.4413 0.1842-0.03718 0.3685-0.07353 0.5514-0.1054 1.826-0.3183 3.593-0.3894 5.083-0.3545 1.058 0.02472 1.966 0.103 2.665 0.1845 0.9065-1.241 1.914-2.421 3.032-3.485 0.8457-0.8034 1.759-1.539 2.737-2.179zm-9.009 7.072h-0.001032c-1.288-0.0054-2.752 0.07755-4.233 0.3359-0.05586 0.0097-0.1115 0.02132-0.1674 0.03152 0.09134 0.3712 0.1406 0.7596 0.1406 1.159 0 2.665-2.154 4.823-4.805 4.823-1.298 0-2.477-0.5179-3.342-1.359-0.1434 0.1922-0.2819 0.3848-0.4155 0.5788-0.03064 0.05199-0.06208 0.1032-0.09198 0.1561-1.059 1.876-1.737 3.731-2.1 5.612-0.2352 1.78-0.3291 3.48-0.2615 5.155 0.0028 0.03736 0.0058 0.07475 0.0088 0.1121 2.569-1.862 5.104-3.114 6.678-3.734 2.021-0.7994 3.919-1.523 5.856-2.161 0.7546-2.245 1.548-4.162 2.27-5.715 0.7491-1.615 1.637-3.284 2.678-4.895-0.4985-0.04091-1.054-0.07563-1.67-0.08992-0.1765-0.0041-0.3569-0.0065-0.5411-0.0072zm3.973 0.3033h-1e-3c-1.181 1.73-2.182 3.572-3.011 5.356-0.5784 1.247-1.206 2.744-1.822 4.461 4.49-1.316 9.454-2.148 16.81-2.303h0.01602c1.047-0.0013 3.71-0.05985 7.293 0.2176-6.133-3.977-12.78-6.723-19.29-7.731zm25.31 10.07h-1e-3l5.15e-4 5.16e-4zm5.16e-4 0.0016 1e-3 5.16e-4c2.395 1.814 4.794 3.924 7.094 6.255 0.3056-0.1867 0.635-0.3394 0.9803-0.4548-0.3517-1.471-0.7606-2.86-1.216-4.231-2.365-0.6954-4.683-1.202-6.858-1.57zm8.701 2.142 5.16e-4 1e-3 -0.0026 0.0041c0.3408 1.103 0.6531 2.23 0.9317 3.408 2.638 0.01968 4.771 2.172 4.771 4.823 0 1.164-0.4113 2.232-1.096 3.064 1.697 2.257 3.252 4.615 4.596 7.025 2.241 4.014 3.694 8.147 4.374 12.05 0.8806-0.7287 1.687-1.48 2.402-2.262 1.365-1.494 2.409-3.083 3.066-4.837-1.995-0.5874-3.453-2.436-3.453-4.628 0-2.141 1.392-3.959 3.316-4.588-0.8449-1.978-2.215-3.823-3.958-5.522-2.932-2.858-6.898-5.25-10.97-7.02-1.324-0.5755-2.654-1.077-3.977-1.519zm3.403 12.35h-5.18e-4c-0.3405 0.2095-0.7094 0.3773-1.099 0.4971 0.0975 1.591 0.1704 3.17 0.1995 4.506 0.0024 2.057 0.2895 10.81-2.366 20.29 2.072-0.5871 3.9-1.261 5.313-2.019 2.467-1.322 4.728-2.683 6.692-4.13-0.5768-3.953-2.009-8.234-4.329-12.39-1.288-2.308-2.781-4.575-4.413-6.75l0.0021-0.0021zm-43.21 2.005c6.395 0.0025 12.79 2.444 17.67 7.327 9.766 9.764 9.766 25.59 0 35.35-9.766 9.764-25.6 9.764-35.35 0-9.766-9.764-9.766-25.59 0-35.35 4.879-4.879 11.27-7.321 17.67-7.327zm-24.41 7.763c7.884e-4 0.0016 0.0021 0.0031 0.0031 0.0047l-0.00517-0.0015c7.911e-4 -0.0011 0.00107-0.0021 0.00207-0.0031zm83.69 3.939v1e-3c-0.6398 1.109-1.419 2.151-2.314 3.133-0.9748 1.067-2.087 2.067-3.308 3.019 0.1231 1.081 0.1866 2.141 0.1871 3.17 1e-3 2.72-0.4288 5.247-1.301 7.414 1.188-1.249 2.164-2.55 2.855-3.8 2.396-4.347 3.435-8.996 3.868-12.8 0.0052-0.04572 0.0094-0.08939 0.01447-0.1349l-1e-3 -5.16e-4zm-49.9 0.109c-2.81 0-5.089 2.407-5.089 5.382 0 2.974 2.276 5.385 5.089 5.385 2.812 0 5.088-2.408 5.088-5.385 0-2.974-2.277-5.382-5.088-5.382zm-11.43 0.7793c-1.438 0-2.59 1.189-2.59 2.662 0 1.472 1.152 2.659 2.59 2.659 1.438 0 2.598-1.188 2.598-2.659 0-1.472-1.161-2.662-2.598-2.662zm-6.932 0c-1.438 0-2.59 1.189-2.59 2.662 0 1.472 1.152 2.659 2.59 2.659 1.438 0 2.599-1.188 2.599-2.659 0-1.472-1.161-2.662-2.599-2.662zm61.12 6.364v0.0016c-1.865 1.308-3.94 2.53-6.149 3.715-1.793 0.9608-4.075 1.777-6.615 2.453-0.493 1.544-1.066 3.096-1.737 4.633-0.8618 1.973-1.877 3.919-3.03 5.744 1.033 0.05781 2.113 0.08351 3.268 0.08061 1.954-0.0049 3.926-0.4394 5.818-1.168-0.06303-0.3117-0.0956-0.6335-0.0956-0.9643 0-2.665 2.154-4.824 4.805-4.824 0.7335 0 1.429 0.1658 2.051 0.461 1.163-2.164 1.773-4.927 1.771-8.065-2.63e-4 -0.6737-0.02979-1.363-0.08682-2.066zm-61.63 0.6516c-2.018 0-6.066 1.037-6.066 3.104v2.217h5.197v-2.217c0-1.312 0.7024-2.314 1.706-3.059-0.3032-0.0266-0.5894-0.04444-0.8408-0.04444zm7.44 0.07958h-0.002615c-2.019 6.72e-4 -6.065 1.038-6.065 3.104v2.217h12.13v-2.217c0-2.065-4.046-3.104-6.065-3.104zm11.43 5.581h-0.0026c-3.396 8.57e-4 -10.17 1.791-10.17 5.382v2.691h20.35v-2.691c0-3.579-6.778-5.381-10.18-5.382zm-15.38 1.082c-2.001 0-3.622 1.715-3.622 3.831 0 2.117 1.62 3.832 3.622 3.832 2.001 0 3.623-1.715 3.623-3.832 0-2.117-1.621-3.831-3.623-3.831zm0.0062 9.579h-0.006216c-2.417 0-7.245 1.274-7.245 3.831v1.916h14.49v-1.916c0-2.547-4.823-3.831-7.241-3.831z" fill="#3f6bb0"/>
</svg>
